<mxfile host="app.diagrams.net" agent="Mozilla/5.0 (Windows NT 10.0; Win64; x64) AppleWebKit/537.36 (KHTML, like Gecko) Chrome/130.0.0.0 Safari/537.36" version="24.8.6" pages="2">
  <diagram id="C5RBs43oDa-KdzZeNtuy" name="code flow &amp; data">
    <mxGraphModel grid="1" page="1" gridSize="10" guides="1" tooltips="1" connect="1" arrows="1" fold="1" pageScale="1" pageWidth="827" pageHeight="1169" math="0" shadow="0">
      <root>
        <mxCell id="WIyWlLk6GJQsqaUBKTNV-0" />
        <mxCell id="WIyWlLk6GJQsqaUBKTNV-1" parent="WIyWlLk6GJQsqaUBKTNV-0" />
        <mxCell id="Pb3WY0-0JMKUWawor_lN-2" value="GameManager" style="swimlane;fontStyle=2;align=center;verticalAlign=top;childLayout=stackLayout;horizontal=1;startSize=26;horizontalStack=0;resizeParent=1;resizeLast=0;collapsible=1;marginBottom=0;rounded=0;shadow=0;strokeWidth=1;" vertex="1" parent="WIyWlLk6GJQsqaUBKTNV-1">
          <mxGeometry x="180" y="460" width="300" height="138" as="geometry">
            <mxRectangle x="230" y="140" width="160" height="26" as="alternateBounds" />
          </mxGeometry>
        </mxCell>
        <mxCell id="Pb3WY0-0JMKUWawor_lN-4" value="Dictionary&lt;long,Food product&gt;dictFoods = new ()" style="text;align=left;verticalAlign=top;spacingLeft=4;spacingRight=4;overflow=hidden;rotatable=0;points=[[0,0.5],[1,0.5]];portConstraint=eastwest;rounded=0;shadow=0;html=0;" vertex="1" parent="Pb3WY0-0JMKUWawor_lN-2">
          <mxGeometry y="26" width="300" height="22" as="geometry" />
        </mxCell>
        <mxCell id="NXhmF1NjfVf1BXtb6jI3-0" value="Dictionary&lt;long,Food product&gt;dictIngredience = new ()" style="text;align=left;verticalAlign=top;spacingLeft=4;spacingRight=4;overflow=hidden;rotatable=0;points=[[0,0.5],[1,0.5]];portConstraint=eastwest;rounded=0;shadow=0;html=0;" vertex="1" parent="Pb3WY0-0JMKUWawor_lN-2">
          <mxGeometry y="48" width="300" height="22" as="geometry" />
        </mxCell>
        <mxCell id="Pb3WY0-0JMKUWawor_lN-6" value="" style="line;html=1;strokeWidth=1;align=left;verticalAlign=middle;spacingTop=-1;spacingLeft=3;spacingRight=3;rotatable=0;labelPosition=right;points=[];portConstraint=eastwest;" vertex="1" parent="Pb3WY0-0JMKUWawor_lN-2">
          <mxGeometry y="70" width="300" height="8" as="geometry" />
        </mxCell>
        <mxCell id="Pb3WY0-0JMKUWawor_lN-14" value="Vertical Container" style="swimlane;whiteSpace=wrap;html=1;" vertex="1" parent="WIyWlLk6GJQsqaUBKTNV-1">
          <mxGeometry x="640" y="470" width="250" height="200" as="geometry" />
        </mxCell>
        <mxCell id="Pb3WY0-0JMKUWawor_lN-15" value="   Dictionary&lt;long,INGREDIENCE&gt;dictIngredience" style="text;align=left;verticalAlign=top;spacingLeft=4;spacingRight=4;overflow=hidden;rotatable=0;points=[[0,0.5],[1,0.5]];portConstraint=eastwest;rounded=0;shadow=0;html=0;" vertex="1" parent="Pb3WY0-0JMKUWawor_lN-14">
          <mxGeometry x="-10" y="33" width="300" height="26" as="geometry" />
        </mxCell>
        <mxCell id="Pb3WY0-0JMKUWawor_lN-16" value="" style="endArrow=classic;html=1;rounded=0;exitX=0.017;exitY=1;exitDx=0;exitDy=0;exitPerimeter=0;entryX=1;entryY=0.75;entryDx=0;entryDy=0;" edge="1" parent="WIyWlLk6GJQsqaUBKTNV-1" source="Pb3WY0-0JMKUWawor_lN-15" target="Pb3WY0-0JMKUWawor_lN-2">
          <mxGeometry width="50" height="50" relative="1" as="geometry">
            <mxPoint x="390" y="410" as="sourcePoint" />
            <mxPoint x="440" y="360" as="targetPoint" />
          </mxGeometry>
        </mxCell>
      </root>
    </mxGraphModel>
  </diagram>
  <diagram id="JlCoAtqAVgAvNiTVRZwF" name="config">
    <mxGraphModel grid="1" page="1" gridSize="10" guides="1" tooltips="1" connect="1" arrows="1" fold="1" pageScale="1" pageWidth="850" pageHeight="1100" math="0" shadow="0">
      <root>
        <mxCell id="0" />
        <mxCell id="1" parent="0" />
        <mxCell id="9noUH9EJ9aLUGJ7s67fn-1" value="Banhbao" style="swimlane;whiteSpace=wrap;html=1;" vertex="1" parent="1">
          <mxGeometry x="70" y="310" width="310" height="200" as="geometry" />
        </mxCell>
        <mxCell id="9noUH9EJ9aLUGJ7s67fn-2" value="  &lt;i, Thit&gt; , &lt;10,Botmi&gt;" style="text;align=left;verticalAlign=top;spacingLeft=4;spacingRight=4;overflow=hidden;rotatable=0;points=[[0,0.5],[1,0.5]];portConstraint=eastwest;rounded=0;shadow=0;html=0;" vertex="1" parent="9noUH9EJ9aLUGJ7s67fn-1">
          <mxGeometry x="-10" y="46" width="300" height="26" as="geometry" />
        </mxCell>
        <mxCell id="NDF_q_GeIAoW5O9bUhmN-3" value="  id : 1" style="text;align=left;verticalAlign=top;spacingLeft=4;spacingRight=4;overflow=hidden;rotatable=0;points=[[0,0.5],[1,0.5]];portConstraint=eastwest;rounded=0;shadow=0;html=0;" vertex="1" parent="9noUH9EJ9aLUGJ7s67fn-1">
          <mxGeometry x="-20" y="46" width="300" height="26" as="geometry" />
        </mxCell>
        <mxCell id="9noUH9EJ9aLUGJ7s67fn-3" value="&lt;blockquote style=&quot;margin: 0 0 0 40px; border: none; padding: 0px;&quot;&gt;Thit&lt;/blockquote&gt;" style="swimlane;whiteSpace=wrap;html=1;" vertex="1" parent="1">
          <mxGeometry x="490" y="100" width="290" height="200" as="geometry" />
        </mxCell>
        <mxCell id="9noUH9EJ9aLUGJ7s67fn-6" value="  id : 1" style="text;align=left;verticalAlign=top;spacingLeft=4;spacingRight=4;overflow=hidden;rotatable=0;points=[[0,0.5],[1,0.5]];portConstraint=eastwest;rounded=0;shadow=0;html=0;" vertex="1" parent="9noUH9EJ9aLUGJ7s67fn-3">
          <mxGeometry y="33" width="300" height="26" as="geometry" />
        </mxCell>
        <mxCell id="9noUH9EJ9aLUGJ7s67fn-10" value="&lt;blockquote style=&quot;margin: 0 0 0 40px; border: none; padding: 0px;&quot;&gt;Botmi&lt;/blockquote&gt;" style="swimlane;whiteSpace=wrap;html=1;" vertex="1" parent="1">
          <mxGeometry x="520" y="500" width="290" height="200" as="geometry" />
        </mxCell>
        <mxCell id="9noUH9EJ9aLUGJ7s67fn-11" value="  id : 10" style="text;align=left;verticalAlign=top;spacingLeft=4;spacingRight=4;overflow=hidden;rotatable=0;points=[[0,0.5],[1,0.5]];portConstraint=eastwest;rounded=0;shadow=0;html=0;" vertex="1" parent="9noUH9EJ9aLUGJ7s67fn-10">
          <mxGeometry y="33" width="300" height="26" as="geometry" />
        </mxCell>
        <mxCell id="9noUH9EJ9aLUGJ7s67fn-12" value="amount : 200" style="text;align=left;verticalAlign=top;spacingLeft=4;spacingRight=4;overflow=hidden;rotatable=0;points=[[0,0.5],[1,0.5]];portConstraint=eastwest;rounded=0;shadow=0;html=0;" vertex="1" parent="9noUH9EJ9aLUGJ7s67fn-10">
          <mxGeometry x="-5" y="59" width="300" height="26" as="geometry" />
        </mxCell>
        <mxCell id="NDF_q_GeIAoW5O9bUhmN-1" value="GameManager" style="swimlane;whiteSpace=wrap;html=1;startSize=23;" vertex="1" parent="1">
          <mxGeometry x="120" y="560" width="250" height="200" as="geometry" />
        </mxCell>
        <mxCell id="NDF_q_GeIAoW5O9bUhmN-2" value="DICTFoods: &lt;1,Banhbao&gt; &lt;2,Banhmi&gt;" style="text;align=left;verticalAlign=top;spacingLeft=4;spacingRight=4;overflow=hidden;rotatable=0;points=[[0,0.5],[1,0.5]];portConstraint=eastwest;rounded=0;shadow=0;html=0;" vertex="1" parent="NDF_q_GeIAoW5O9bUhmN-1">
          <mxGeometry x="-10" y="33" width="300" height="26" as="geometry" />
        </mxCell>
        <mxCell id="frs5DTGlJkov0AIH9ppu-1" value="DICTIngredience: &lt;1,Thit&gt; &lt;2,Botmi&gt;" style="text;align=left;verticalAlign=top;spacingLeft=4;spacingRight=4;overflow=hidden;rotatable=0;points=[[0,0.5],[1,0.5]];portConstraint=eastwest;rounded=0;shadow=0;html=0;" vertex="1" parent="NDF_q_GeIAoW5O9bUhmN-1">
          <mxGeometry y="70" width="300" height="26" as="geometry" />
        </mxCell>
        <mxCell id="frs5DTGlJkov0AIH9ppu-2" value="Hambuger" style="swimlane;whiteSpace=wrap;html=1;" vertex="1" parent="1">
          <mxGeometry x="70" width="310" height="200" as="geometry" />
        </mxCell>
        <mxCell id="frs5DTGlJkov0AIH9ppu-3" value=" dict &lt;id, cHITIETNGUYENLIEU&gt; , &lt;10,Botmi&gt;" style="text;align=left;verticalAlign=top;spacingLeft=4;spacingRight=4;overflow=hidden;rotatable=0;points=[[0,0.5],[1,0.5]];portConstraint=eastwest;rounded=0;shadow=0;html=0;" vertex="1" parent="frs5DTGlJkov0AIH9ppu-2">
          <mxGeometry x="-10" y="46" width="300" height="26" as="geometry" />
        </mxCell>
        <mxCell id="frs5DTGlJkov0AIH9ppu-4" value="  id : 1" style="text;align=left;verticalAlign=top;spacingLeft=4;spacingRight=4;overflow=hidden;rotatable=0;points=[[0,0.5],[1,0.5]];portConstraint=eastwest;rounded=0;shadow=0;html=0;" vertex="1" parent="frs5DTGlJkov0AIH9ppu-2">
          <mxGeometry y="20" width="300" height="26" as="geometry" />
        </mxCell>
        <mxCell id="frs5DTGlJkov0AIH9ppu-5" value="&lt;blockquote style=&quot;margin: 0 0 0 40px; border: none; padding: 0px;&quot;&gt;ChiTietNguyenLieu&lt;/blockquote&gt;" style="swimlane;whiteSpace=wrap;html=1;" vertex="1" parent="1">
          <mxGeometry x="470" y="-120" width="290" height="200" as="geometry" />
        </mxCell>
        <mxCell id="frs5DTGlJkov0AIH9ppu-6" value="id NGUYEN LIEU " style="text;align=left;verticalAlign=top;spacingLeft=4;spacingRight=4;overflow=hidden;rotatable=0;points=[[0,0.5],[1,0.5]];portConstraint=eastwest;rounded=0;shadow=0;html=0;" vertex="1" parent="frs5DTGlJkov0AIH9ppu-5">
          <mxGeometry y="33" width="300" height="26" as="geometry" />
        </mxCell>
        <mxCell id="frs5DTGlJkov0AIH9ppu-7" value=" amount" style="text;align=left;verticalAlign=top;spacingLeft=4;spacingRight=4;overflow=hidden;rotatable=0;points=[[0,0.5],[1,0.5]];portConstraint=eastwest;rounded=0;shadow=0;html=0;" vertex="1" parent="frs5DTGlJkov0AIH9ppu-5">
          <mxGeometry x="-5" y="59" width="300" height="26" as="geometry" />
        </mxCell>
        <mxCell id="MGDln_Mh5Q5k_aAmbko7-1" value="id " style="text;align=left;verticalAlign=top;spacingLeft=4;spacingRight=4;overflow=hidden;rotatable=0;points=[[0,0.5],[1,0.5]];portConstraint=eastwest;rounded=0;shadow=0;html=0;" vertex="1" parent="frs5DTGlJkov0AIH9ppu-5">
          <mxGeometry y="20" width="300" height="26" as="geometry" />
        </mxCell>
        <mxCell id="MGDln_Mh5Q5k_aAmbko7-2" value="name : thit danh cho chao" style="text;align=left;verticalAlign=top;spacingLeft=4;spacingRight=4;overflow=hidden;rotatable=0;points=[[0,0.5],[1,0.5]];portConstraint=eastwest;rounded=0;shadow=0;html=0;" vertex="1" parent="frs5DTGlJkov0AIH9ppu-5">
          <mxGeometry x="-5" y="87" width="300" height="26" as="geometry" />
        </mxCell>
      </root>
    </mxGraphModel>
  </diagram>
</mxfile>
